<svg width="16" height="16" viewBox="0 0 16 16" fill="none" xmlns="http://www.w3.org/2000/svg">
<g clip-path="url(#clip0_203_1219)">
<path d="M9.39012 6.15385L9.9407 3.87854L8.09412 2.34818L10.5336 2.14575L11.4824 0L12.4311 2.14575L14.8706 2.34818L13.024 3.87854L13.5746 6.15385L11.4824 4.94737L9.39012 6.15385Z" fill="#FDE300"/>
<path d="M0.642548 1.60343C0.693725 1.60458 0.693725 1.60458 0.745607 1.60535C0.85396 1.60766 0.962313 1.6115 1.07031 1.61535C1.10596 1.6165 1.14125 1.61766 1.17761 1.61881C1.28102 1.62189 1.38408 1.62573 1.48749 1.62996C1.51855 1.63112 1.54996 1.63227 1.58243 1.63343C1.85243 1.64689 2.1129 1.67766 2.34761 1.8342C2.37514 1.85189 2.40267 1.86958 2.4309 1.88766C2.68255 2.10266 2.82161 2.39266 2.97196 2.69496C3.0129 2.77612 3.0542 2.85766 3.09514 2.93881C3.12408 2.9965 3.12408 2.9965 3.15372 3.05535C3.22537 3.19689 3.29878 3.33727 3.37255 3.47727C3.38561 3.50189 3.39831 3.5265 3.41172 3.55189C3.44314 3.6115 3.47455 3.67112 3.50561 3.73073C3.54478 3.73073 3.54478 3.73073 3.58467 3.73073C5.12525 3.73227 6.66549 3.73458 8.20608 3.73766C8.39102 3.73804 8.57596 3.73843 8.76055 3.73881C8.79761 3.73881 8.83431 3.73881 8.87208 3.7392C9.46855 3.74035 10.065 3.74073 10.6615 3.7415C11.2731 3.74189 11.8848 3.74304 12.4964 3.74458C12.8741 3.74535 13.2514 3.74612 13.629 3.74573C13.8877 3.74573 14.1464 3.7465 14.4051 3.74727C14.5548 3.74804 14.7041 3.74843 14.8534 3.74804C14.9903 3.74766 15.1269 3.74804 15.2635 3.74881C15.3133 3.7492 15.3627 3.7492 15.4121 3.74881C15.4795 3.74843 15.5465 3.7492 15.6136 3.74958C15.6697 3.74996 15.6697 3.74996 15.7269 3.74996C15.8483 3.7742 15.8893 3.81843 15.9644 3.92304C16.0145 4.10381 15.9913 4.22458 15.9373 4.40112C15.9302 4.42458 15.9231 4.44843 15.9157 4.47266C15.8921 4.55112 15.8674 4.6292 15.843 4.70727C15.8261 4.76266 15.8091 4.81843 15.7925 4.87381C15.747 5.02266 15.7015 5.17073 15.6556 5.3192C15.6083 5.47266 15.5614 5.62612 15.5144 5.77958C15.4491 5.99381 15.3838 6.20766 15.3182 6.4215C15.1777 6.87958 15.0401 7.33843 14.9035 7.79804C14.8848 7.8615 14.8661 7.92458 14.847 7.98766C14.8382 8.01766 14.8294 8.04727 14.8202 8.07804C14.8033 8.13496 14.7863 8.19227 14.769 8.2492C14.7249 8.39573 14.6818 8.54266 14.6402 8.69035C14.6222 8.75304 14.6042 8.81535 14.5862 8.87804C14.5781 8.90689 14.5703 8.93535 14.5625 8.96496C14.5544 8.99189 14.5467 9.0192 14.5385 9.04689C14.5287 9.08227 14.5287 9.08227 14.5184 9.11804C14.4443 9.27035 14.3451 9.36573 14.2015 9.43458C14.1623 9.44689 14.1235 9.4592 14.0836 9.47189C14.0617 9.4792 14.0398 9.48612 14.0176 9.49343C13.9453 9.5165 13.8729 9.5392 13.8002 9.5615C13.7487 9.57804 13.6968 9.59458 13.6449 9.61112C13.5341 9.64689 13.4229 9.68189 13.3117 9.71689C13.1342 9.77227 12.957 9.82881 12.7802 9.88535C12.5667 9.95343 12.3531 10.0215 12.1396 10.0892C11.7881 10.2007 11.4373 10.3134 11.0864 10.4277C11.0624 10.4357 11.0384 10.4434 11.0137 10.4515C10.8941 10.4907 10.7741 10.5296 10.6541 10.5688C10.4151 10.6469 10.1758 10.725 9.9369 10.8027C9.9129 10.8103 9.8889 10.8184 9.8642 10.8261C9.47561 10.9527 9.08702 11.0784 8.69843 11.2038C8.60667 11.2334 8.5149 11.263 8.42314 11.2927C8.39314 11.3023 8.36314 11.3119 8.33208 11.3219C8.27172 11.3415 8.21173 11.3607 8.15137 11.3803C7.97525 11.4373 7.79914 11.4938 7.62302 11.5503C7.51396 11.5857 7.40525 11.6207 7.2962 11.6557C7.24573 11.6723 7.1949 11.6884 7.14408 11.705C7.07455 11.7269 7.00537 11.7496 6.93584 11.7719C6.89702 11.7846 6.85784 11.7973 6.81761 11.81C6.73114 11.8411 6.65455 11.8723 6.5762 11.923C6.53596 12.0111 6.53737 12.0615 6.53878 12.1588C6.53984 12.2327 6.53984 12.2327 6.5409 12.3077C6.67643 12.3569 6.8042 12.3519 6.94537 12.3519C6.97643 12.3519 7.00714 12.3519 7.0389 12.3523C7.14267 12.3527 7.24643 12.3527 7.3502 12.353C7.42431 12.353 7.49843 12.3534 7.57255 12.3538C7.73278 12.3542 7.89267 12.3546 8.05255 12.355C8.30561 12.3557 8.55831 12.3565 8.81102 12.3577C9.52996 12.3603 10.2493 12.3627 10.9682 12.3646C11.3649 12.3657 11.762 12.3669 12.159 12.3688C12.4103 12.3696 12.662 12.3704 12.9133 12.3707C13.0696 12.3711 13.226 12.3719 13.3823 12.3727C13.455 12.373 13.5274 12.373 13.6001 12.373C13.6989 12.373 13.7981 12.3734 13.8969 12.3742C13.9403 12.3742 13.9403 12.3742 13.9844 12.3738C14.2297 12.3765 14.2297 12.3765 14.3409 12.4615C14.4316 12.5838 14.4133 12.7023 14.4002 12.85C14.3653 12.9573 14.3268 12.9823 14.235 13.0384C14.1305 13.05 14.0331 13.0546 13.9287 13.0538C13.8973 13.0538 13.8658 13.0542 13.8337 13.0546C13.7285 13.055 13.6234 13.055 13.5185 13.0546C13.4434 13.055 13.3678 13.0554 13.2927 13.0557C13.088 13.0565 12.8836 13.0565 12.6789 13.0565C12.5081 13.0565 12.3373 13.0569 12.1664 13.0573C11.763 13.058 11.36 13.058 10.9565 13.0577C10.5408 13.0577 10.1254 13.0584 9.70961 13.06C9.35243 13.0611 8.99561 13.0615 8.63843 13.0611C8.42525 13.0611 8.21208 13.0615 7.9989 13.0623C7.79843 13.0634 7.59761 13.063 7.39714 13.0623C7.32373 13.0623 7.24996 13.0623 7.17655 13.063C6.4029 13.0684 6.4029 13.0684 6.1209 12.7765C5.91196 12.535 5.88937 12.3034 5.89502 11.9788C5.91937 11.6804 6.04573 11.5203 6.24831 11.3288C6.35314 11.2519 6.45937 11.205 6.5762 11.1538C6.36867 10.6827 6.13643 10.2292 5.89855 9.77535C5.78702 9.5615 5.67655 9.34689 5.56608 9.13227C5.54525 9.09189 5.52443 9.0515 5.5029 9.00958C5.48314 8.9715 5.46373 8.93343 5.44325 8.8942C5.42631 8.86073 5.40902 8.82727 5.39102 8.79266C5.33667 8.68381 5.28584 8.57266 5.23502 8.4615C5.27772 8.4615 5.27772 8.4615 5.32114 8.4615C6.01184 8.4592 6.7029 8.45612 7.39361 8.45266C7.72749 8.45073 8.06173 8.4492 8.39561 8.44843C8.68678 8.44727 8.97796 8.44612 9.26914 8.4442C9.42302 8.44343 9.57725 8.44266 9.73149 8.44227C9.87655 8.44227 10.0216 8.4415 10.1667 8.44035C10.22 8.43996 10.2733 8.43996 10.3265 8.43996C10.3993 8.43996 10.472 8.4392 10.5447 8.43843C10.5856 8.43843 10.6262 8.43804 10.6682 8.43804C10.7991 8.41996 10.8941 8.37189 10.988 8.2692C10.9848 8.13535 10.9848 8.13535 10.9527 7.99996C10.8344 7.90458 10.7141 7.91304 10.5708 7.91227C10.5468 7.91227 10.5224 7.91189 10.4977 7.91189C10.4165 7.91112 10.3357 7.91112 10.2545 7.91073C10.1963 7.91035 10.1384 7.90996 10.0802 7.90958C9.92243 7.90881 9.76502 7.90804 9.60725 7.90766C9.44243 7.90689 9.27761 7.90612 9.11278 7.90496C8.80043 7.90304 8.48843 7.90189 8.17643 7.90035C7.82102 7.89881 7.46561 7.89727 7.11055 7.89535C6.37961 7.89112 5.64867 7.88766 4.91737 7.88458C4.90255 7.85496 4.88737 7.82573 4.87184 7.79535C4.81537 7.68381 4.75855 7.57266 4.70172 7.4615C4.67737 7.41343 4.65302 7.36573 4.62867 7.31766C4.47267 7.0115 4.31631 6.70496 4.15678 6.40073C4.07031 6.23496 4.07031 6.23496 4.07031 6.19227C4.09114 6.19227 4.11161 6.19227 4.13278 6.19189C4.6322 6.18881 5.13196 6.18535 5.63137 6.18112C5.87314 6.1792 6.1149 6.17766 6.35631 6.17612C6.58961 6.17458 6.8229 6.17304 7.05584 6.17073C7.14478 6.17035 7.23373 6.16958 7.32267 6.1692C7.44725 6.16843 7.57184 6.16727 7.69678 6.16612C7.73349 6.16612 7.7702 6.16612 7.80796 6.16573C7.99925 6.16343 8.1602 6.14612 8.3409 6.07689C8.37761 5.95035 8.38361 5.90073 8.32996 5.77881C8.27737 5.68881 8.27737 5.68881 8.19972 5.65381C8.14078 5.64996 8.08184 5.64843 8.02255 5.64766C7.98514 5.64727 7.94773 5.64689 7.9089 5.6465C7.86761 5.6465 7.82631 5.64612 7.78361 5.64612C7.7402 5.64573 7.69678 5.64535 7.65231 5.64496C7.53302 5.64381 7.41372 5.64304 7.29478 5.64227C7.1702 5.6415 7.04596 5.64035 6.92137 5.6392C6.68561 5.63727 6.44984 5.63573 6.21408 5.6342C5.94584 5.63227 5.67761 5.62996 5.40902 5.62804C4.85702 5.62343 4.30502 5.6192 3.75267 5.61535C3.67925 5.47343 3.60549 5.3315 3.53172 5.18958C3.51125 5.14958 3.49043 5.10958 3.4689 5.06843C3.34643 4.83189 3.22431 4.59535 3.1029 4.35804C2.9162 3.99227 2.72631 3.62843 2.5329 3.26689C2.51278 3.2292 2.49267 3.1915 2.47184 3.15266C2.41678 3.05035 2.36137 2.94804 2.30561 2.84612C2.28937 2.81612 2.27314 2.78612 2.2562 2.75496C2.23361 2.71381 2.23361 2.71381 2.21031 2.67189C2.19055 2.6365 2.19055 2.6365 2.17078 2.60035C2.07937 2.46381 1.95478 2.39804 1.81149 2.34612C1.76455 2.3415 1.7169 2.33843 1.66961 2.3365C1.6269 2.33496 1.6269 2.33496 1.58349 2.33304C1.53761 2.3315 1.53761 2.3315 1.49102 2.32958C1.42608 2.32689 1.36149 2.32381 1.29655 2.32112C1.19455 2.31689 1.09255 2.31266 0.990195 2.30881C0.891725 2.30496 0.793254 2.30073 0.694784 2.29612C0.664078 2.29496 0.633725 2.2942 0.602666 2.29304C0.437489 2.28496 0.322078 2.27073 0.18796 2.15381C0.132901 2.03343 0.128313 1.89958 0.152666 1.7692C0.271254 1.56304 0.442431 1.5965 0.642548 1.60343Z" fill="#255EF9"/>
<path d="M8.11038 13.4798C8.35426 13.6733 8.51802 13.9025 8.57802 14.2287C8.62179 14.5706 8.57344 14.8775 8.39026 15.1667C8.19191 15.4241 7.97167 15.5941 7.65897 15.6283C7.27744 15.6329 7.02755 15.556 6.74555 15.2717C6.53485 15.0071 6.44979 14.6917 6.47061 14.346C6.5292 14.0187 6.65838 13.7152 6.90297 13.5048C7.27673 13.2448 7.73026 13.2314 8.11038 13.4798Z" fill="#255EF9"/>
<path d="M13.1147 13.5265C13.3519 13.7373 13.5097 13.9815 13.5414 14.3192C13.545 14.6827 13.4959 14.9361 13.3131 15.2404C13.029 15.5369 12.7639 15.6304 12.3785 15.6261C12.0954 15.6007 11.8452 15.4657 11.6588 15.2307C11.4502 14.8915 11.4181 14.5992 11.4471 14.1923C11.5131 13.8996 11.6899 13.6384 11.9235 13.478C12.3195 13.2538 12.7388 13.2392 13.1147 13.5265Z" fill="#255EF9"/>
</g>
<defs>
<clipPath id="clip0_203_1219">
<rect width="16" height="16" fill="white"/>
</clipPath>
</defs>
</svg>
